<svg xmlns="http://www.w3.org/2000/svg" viewBox="0 0 512 512"><style type="text/css">  
	.st0{fill-rule:evenodd;clip-rule:evenodd;fill:#EEF0F2;}
</style><path class="st0" d="M204 273c-6.3-4.8-14.7-7.2-25-7.2h-52.2v60H178c4.7 0 9.2-0.4 13.5-1.4 4.3-0.9 8.1-2.4 11.3-4.6 3.2-2.1 5.9-5 7.8-8.7 1.9-3.7 2.9-8.4 2.9-14.1C213.5 285.8 210.3 277.8 204 273z"/><path class="st0" d="M196.5 226.9c5.5-4 8.2-10.7 8.2-19.8 0-5.1-0.9-9.3-2.7-12.5 -1.9-3.3-4.3-5.8-7.4-7.6 -3.1-1.9-6.5-3.1-10.6-3.8 -4-0.8-8.1-1.1-12.3-1.1h-44.9V233h48.6C183.9 233 190.9 231 196.5 226.9z"/><path class="st0" d="M0 0v512h512V0H0zM310.2 159.6h88.4v21.5h-88.4V159.6zM255 328.3c-4.3 8.1-10.1 14.7-17.2 19.7 -7.2 5.1-15.5 8.9-24.8 11.3 -9.2 2.4-18.7 3.7-28.5 3.7H78.8v-218h102.8c10.4 0 19.8 0.9 28.4 2.8 8.6 1.8 15.9 4.8 22 9 6.1 4.2 10.8 9.7 14.2 16.6 3.3 6.9 5 15.4 5 25.6 0 11-2.5 20.1-7.5 27.5 -5 7.3-12.4 13.3-22.3 18 13.4 3.9 23.4 10.6 29.9 20.3 6.6 9.7 9.9 21.4 9.9 35C261.3 310.7 259.2 320.2 255 328.3zM433 294.5H319c0 12.5 4.2 24.3 10.7 30.6 6.5 6.3 15.9 9.5 28 9.5 8.7 0 16.3-2.2 22.6-6.6 6.3-4.4 10.1-9.1 11.6-14h38.2c-6.1 19-15.5 32.6-28.2 40.7 -12.6 8.2-27.9 12.3-45.7 12.3 -12.4 0-23.6-2-33.7-6 -10-4-18.4-9.6-25.5-17 -6.9-7.4-12.2-16.1-16-26.3 -3.8-10.2-5.7-21.4-5.7-33.7 0-11.8 2-22.8 5.8-33 3.9-10.2 9.4-19.1 16.5-26.5 7.2-7.4 15.7-13.3 25.6-17.6 9.9-4.3 20.8-6.4 32.9-6.4 13.4 0 25.1 2.6 35.1 7.8 10 5.2 18.2 12.2 24.6 20.9 6.4 8.7 11 18.7 13.9 30C432.8 270.5 433.8 282.2 433 294.5z"/><path class="st0" d="M355.1 233.4c-6.9 0-12.7 1.2-17.3 3.5 -4.5 2.3-8.2 5.3-11 8.7 -2.8 3.5-4.7 7.2-5.8 11.1 -1.1 3.8-1.8 7.3-2 10.4h70.6c-1-11.1-4.8-19.2-10-25C374.4 236.5 365.7 233.4 355.1 233.4z"/></svg>