<svg xmlns="http://www.w3.org/2000/svg" viewBox="0 0 512 512"><style type="text/css">  
	.st0{fill:#EEF0F2;}
</style><path class="st0" d="M512 0H0v512h512V0zM181.6 387h-62.3V199.4h62.3V387zM150.4 173.8H150c-20.9 0-34.5-14.4-34.5-32.4 0-18.4 13.9-32.4 35.3-32.4s34.5 14 34.9 32.4C185.7 159.4 172.2 173.8 150.4 173.8zM406.4 387h-62.3V286.7c0-25.2-9-42.4-31.6-42.4 -17.2 0-27.5 11.6-32 22.8 -1.6 4-2.1 9.6-2.1 15.2V387h-62.3c0 0 0.8-170 0-187.6h62.3V226c8.3-12.8 23.1-31 56.2-31 41 0 71.8 26.8 71.8 84.4L406.4 387 406.4 387z"/></svg>